<?xml version="1.0" encoding="utf-8"?>
<!-- Generator: Adobe Illustrator 26.3.1, SVG Export Plug-In . SVG Version: 6.00 Build 0)  -->
<svg version="1.1" id="Layer_1" xmlns="http://www.w3.org/2000/svg" xmlns:xlink="http://www.w3.org/1999/xlink" x="0px" y="0px"
	 viewBox="0 0 1041.7 286.5" style="enable-background:new 0 0 1041.7 286.5;" xml:space="preserve">
<style type="text/css">
	.st0{fill:#E12428;}
	.st1{fill:#FFFFFF;}
	.st2{clip-path:url(#SVGID_00000169542097377468128700000006696000283244690054_);}
	.st3{fill:#E5403F;}
	.st4{fill:#C1BFBF;}
</style>
<g>
	<rect x="2.4" y="38.9" class="st0" width="210.2" height="210.2"/>
	<polygon class="st1" points="71.9,106.9 68.7,73 57.2,106.9 46,106.9 34,72.9 31.5,106.9 19.6,106.9 24.9,55.9 39.5,55.9 52.3,91 
		64.2,55.9 78.8,55.9 84.5,106.9 	"/>
	<g>
		<defs>
			<rect id="SVGID_1_" x="-48.5" y="-12" width="1133.2" height="312.1"/>
		</defs>
		<clipPath id="SVGID_00000134958628781196028370000011921462289809011629_">
			<use xlink:href="#SVGID_1_"  style="overflow:visible;"/>
		</clipPath>
		<g style="clip-path:url(#SVGID_00000134958628781196028370000011921462289809011629_);">
			<path class="st1" d="M110.3,108c-12.3,0-19.9-8.9-19.9-19.9c0-11.6,9-20.2,20.5-20.2c8.5,0,13.1,4,13.7,4.7l-4.9,7.4
				c-2.1-1.4-4.6-2.2-7.1-2.3c-6,0-9.9,4.4-9.9,10.2c0,6,3,10.3,9.2,10.3c3.1-0.1,6-1.1,8.6-2.8l4.7,7.6
				C124.9,103.2,119.7,108.1,110.3,108"/>
			<polygon class="st1" points="49.1,232 49.1,210.7 32.1,210.7 32.1,232 19.6,232 19.6,181 32.1,181 32.1,200.5 49.1,200.5 
				49.1,181 61.7,181 61.7,232 			"/>
			<path class="st1" d="M72.3,199.3h12.3V232H72.3V199.3z M78.5,193.5c-3.6,0-6.6-3-6.5-6.6c0,0,0,0,0,0c0-3.6,2.9-6.5,6.5-6.6
				c0,0,0,0,0.1,0c3.6,0,6.4,2.9,6.4,6.4c0,0,0,0.1,0,0.1C85,190.4,82.1,193.4,78.5,193.5C78.5,193.5,78.5,193.5,78.5,193.5"/>
			<rect x="95.1" y="181" class="st1" width="11.7" height="51"/>
			<rect x="117.3" y="181" class="st1" width="11.7" height="51"/>
			<path class="st1" d="M42.5,170.3c-15.6,0-26.7-10.1-26.7-26.4c0-17,11.7-27.2,27.5-27.2c11.7,0,16.8,4.8,18,6l-5.4,8.1
				c-3.5-2.5-7.7-3.8-11.9-3.7c-8.9,0-15.4,6-15.4,16.1c0,11.4,7.3,16.7,15.3,16.7c2.3,0,4.6-0.3,6.8-0.9v-7.3h-9.3v-9.2h20.3v22.2
				C61.1,165,55.2,170.2,42.5,170.3"/>
			<polygon class="st1" points="185.5,168.1 173,168.1 166.9,144.7 161.2,168.1 149.2,168.1 138.3,130.2 150,130.2 155.9,154.6 
				162.2,130.2 172.5,130.2 178.8,154.6 184.5,130.2 195.7,130.2 			"/>
			<path class="st1" d="M94.4,139c-4-0.1-7.7,1.9-9.8,5.2v24H72.3v-38.1h10.1v5.1c3.1-3.9,7.8-6.1,12.7-6.2l0.8,0.1l0.7,0.1
				L94.4,139z"/>
			<path class="st1" d="M122.1,150.6c-2.9,0-8.3-0.2-10.5,2.1c-0.9,0.8-1.3,2-1.3,3.2c0,3.7,2.8,4.6,4.8,4.6c2.5,0,5-0.7,7.1-2.2
				V150.6z M123.2,168.4v-3.2c-3,2.6-6.8,4-10.8,4.1c-7.7,0-12.4-5.1-12.4-12.4c0-12,17-13,21-13h0.8c0-1.2,0.3-3.5-0.9-4.5
				c-0.7-0.6-1.8-1.2-4.5-1.2c-2.7,0-5.4,0.5-7.9,1.5c-0.7,0.3-1.3,0.5-1.8,0.7l-3.8-7.4c0.6-0.4,1.3-0.7,1.9-1
				c3.8-1.7,7.9-2.6,12.1-2.5c5.8,0,10.2,1.5,13.2,4.5c3.3,3.3,3.1,7.8,3.1,12.4v22.3L123.2,168.4z"/>
			<path class="st1" d="M393.4,141.9v47.5h-12.1v-23.3h-48.8v23.3h-11.8v-47.5c0-25,14.5-38.1,36.2-38.1
				C378.9,103.9,393.4,116.9,393.4,141.9 M381.3,155.6v-14.7c0-17.7-9.4-26.2-24.4-26.2s-24.4,8.6-24.4,26.2v14.7L381.3,155.6z"/>
			<path class="st1" d="M410.4,157.4c0-19.1,14.1-32.6,33.8-32.6c11.5,0,21,4.7,26.1,13.7l-8.8,5.7c-3.8-5.9-10.4-9.4-17.4-9.2
				c-12.6,0-22,8.8-22,22.5c0,13.9,9.4,22.6,22,22.6c7,0.2,13.6-3.3,17.4-9.2l8.8,5.6c-5.1,8.9-14.6,13.8-26.1,13.8
				C424.6,190.1,410.4,176.5,410.4,157.4"/>
			<path class="st1" d="M543.7,152.6v36.9h-11.6v-35.5c0-12.6-6.3-18.7-17.3-18.7c-12.3,0-20.3,7.4-20.3,21.3v33H483V99.8h11.6v34.7
				c4.8-6.2,12.8-9.7,22.6-9.7C532.7,124.8,543.7,133.7,543.7,152.6"/>
			<path class="st1" d="M560.7,105.5c0-4.2,3.4-7.6,7.7-7.6c0.1,0,0.1,0,0.2,0c4.5,0,7.9,3.3,7.9,7.4c-0.1,4.3-3.8,7.8-8.1,7.6
				C564.3,112.8,561,109.6,560.7,105.5 M562.8,125.4h11.6v64h-11.6V125.4z"/>
			<path class="st1" d="M641.5,172.2l6.3,7.5c-5.7,6.8-14.5,10.4-25.1,10.4c-20.7,0-34.4-13.7-34.4-32.8s13.5-32.6,32.2-32.6
				c17.5,0,31.2,12.3,31.5,31.4l-50.9,9.9c3.3,8.8,11.2,13.9,22,13.9C630.5,180,636.8,177.4,641.5,172.2 M599.4,156.8v1.2l41-7.7
				c-2-9.2-9.7-15.7-20-15.7C608.2,134.6,599.5,143.4,599.4,156.8"/>
			<polygon class="st1" points="722.3,125.4 694.2,189.4 682.4,189.4 654.4,125.4 666.5,125.4 688.5,176.7 710.9,125.4 			"/>
			<path class="st1" d="M778.1,172.2l6.3,7.5c-5.7,6.8-14.5,10.4-25.1,10.4c-20.7,0-34.4-13.7-34.4-32.8s13.5-32.6,32.1-32.6
				c17.5,0,31.2,12.3,31.5,31.4l-50.9,9.9c3.3,8.8,11.2,13.9,22,13.9C767.1,180,773.4,177.4,778.1,172.2 M736,156.8v1.2l41-7.7
				c-2-9.2-9.7-15.7-20.1-15.7C744.8,134.6,736.1,143.4,736,156.8"/>
			<path class="st3" d="M842.6,171.2c0,10.4-7.7,18.9-23.4,18.9c-8.8,0-17.5-2.8-22.7-7.5l4-7c4.2,3.9,11,6.6,18.6,6.6
				c9.3,0,14.6-4.2,14.6-10.9c0-6.5-4.7-10.8-15.3-10.8h-4.9v-6.2l15.5-19h-29.7v-7.7h40.7v6L824,153.6
				C836.3,154.8,842.6,161.7,842.6,171.2"/>
			<path class="st3" d="M850.7,158.5c0-20.1,10.8-31.6,25.2-31.6s25.1,11.5,25.1,31.6s-10.8,31.6-25.1,31.6S850.7,178.7,850.7,158.5
				 M892.3,158.5c0-15.8-6.7-23.7-16.3-23.7s-16.4,7.9-16.4,23.7s6.7,23.7,16.4,23.7S892.3,174.3,892.3,158.5"/>
			<path class="st3" d="M909.6,158.5c0-20.1,10.8-31.6,25.2-31.6s25.1,11.5,25.1,31.6s-10.8,31.6-25.1,31.6S909.6,178.7,909.6,158.5
				 M951.1,158.5c0-15.8-6.7-23.7-16.3-23.7s-16.4,7.9-16.4,23.7s6.7,23.7,16.4,23.7S951.1,174.3,951.1,158.5"/>
			<path class="st3" d="M968.4,158.5c0-20.1,10.7-31.6,25.2-31.6s25.1,11.5,25.1,31.6s-10.8,31.6-25.1,31.6S968.4,178.7,968.4,158.5
				 M1009.9,158.5c0-15.8-6.7-23.7-16.3-23.7s-16.4,7.9-16.4,23.7s6.7,23.7,16.4,23.7S1009.9,174.3,1009.9,158.5"/>
			<path class="st3" d="M1033.7,135.5c0,3.6-2.9,6.5-6.5,6.5c0,0,0,0,0,0c-3.5,0-6.4-2.8-6.5-6.4c0,0,0-0.1,0-0.1
				c0-3.6,2.9-6.5,6.4-6.5C1030.8,129,1033.6,131.9,1033.7,135.5 M1032.4,135.5c0-2.9-2.3-5.2-5.1-5.2c0,0-0.1,0-0.1,0
				c-2.9,0-5.2,2.3-5.3,5.2c0,0,0,0,0,0c0,2.9,2.3,5.2,5.2,5.2c0,0,0,0,0.1,0C1030,140.8,1032.4,138.4,1032.4,135.5
				C1032.4,135.5,1032.4,135.5,1032.4,135.5 M1028.7,136.4l1.4,2.1h-1.3l-1.1-1.9h-1.6v1.9h-1.2v-6.3h2.6c1.7,0,2.6,0.8,2.6,2.2
				C1030,135.2,1029.5,136,1028.7,136.4 M1025.9,135.6h1.4c0.9,0,1.4-0.4,1.4-1.3s-0.5-1.2-1.4-1.2h-1.4V135.6z"/>
			<rect x="263.6" y="6.2" class="st4" width="6.1" height="275.6"/>
		</g>
	</g>
</g>
</svg>
